<?xml version="1.0" encoding="UTF-8"?>
<!-- Created with Inkscape (http://www.inkscape.org/) -->
<svg width="500" height="500" version="1.1" viewBox="0 0 132.29 132.29" xmlns="http://www.w3.org/2000/svg">
 <defs>
  <clipPath id="clipPath14770">
   <path d="m14.943 37.039v285.26h452.72v-285.26h-371.98c0.0073 0.1016 0.01128 0.20851 0.0059 0.32227-0.03428 0.71952-0.09785 1.4379-0.10352 2.1582-0.0099 1.2559 0.06363 5.8208 0.1543 7.3711 0.06573 1.124 0.171 2.2447 0.28125 3.3652 0.16401 1.6668 0.09596 1.3154 0.39258 2.3809-0.62058-0.10772-1.2408-0.2165-1.8613-0.32422-0.19104-0.03316-0.29083-0.04989-0.35156-0.05859 7.14e-4 0.0044 0.0012 0.0093 2e-3 0.01367 0.4923 0.12298 3.8465 0.82619 2.2383 0.85547-0.67197 0.01247-1.3437 0.02306-2.0156 0.03516-0.07279-0.28823-0.16999-0.57003-0.21875-0.86328-0.0014-0.0086-0.0025-0.01864-0.0039-0.02734-0.07123-0.01779-0.07485-0.02412-2e-3 -0.01367-0.10747-0.65899-0.21082-1.6113-0.29883-2.5508-0.12328 1.844-2.0156 1.8235-2.0156-0.14648v-1.8242c-0.13211 0.047-0.26432 0.09369-0.39648 0.14062-0.02448-0.15012-0.04837-0.30102-0.07227-0.45117-0.61084-0.03641-0.47096-0.13768-0.03906-0.24219-0.24616-1.5679-0.45727-3.1385-0.62695-4.7168-0.0032-0.0026-0.0065-0.0032-0.0098-0.0059-0.08009-0.05208-0.15523-0.1126-0.24024-0.15625-0.06412-0.03293-0.14614-0.03481-0.20898-0.06641-0.04901 0.2305-0.19485 0.39715-0.3125 0.58789 0.0218-0.1193-0.0343-0.21925-0.32031-0.2207-0.02942-1.48e-4 -0.06165-1.81e-4 -0.0957 2e-3 0.0998 0.23755 0.18019 0.46092 0.14453 0.63476 0.05889-0.05862 0.12577-0.16337 0.18945-0.25976-0.04723 0.05998-0.05757 0.16226-0.11133 0.20898-0.04513 0.03561-0.05719 0.04795-0.08008 0.06641-0.07632 0.30641-0.54124 0.45021-1.9609 0.22461-0.01564 0.06139-0.0152 0.0693-0.04687-0.0078-0.0013-2.13e-4 -0.0026 2.14e-4 -0.0039 0-0.28533-0.04638-0.315-0.24763-0.22852-0.49609-0.11752-0.22601-0.24471-0.44867-0.35742-0.67578-0.0855 1.337-1.3435 2.6321-3.9941 2.752-3.1345 0.14169-6.2301 0.75334-9.3516 1.0078-0.44634 0.03666-2.8373 0.18218-3.6367 0.01367-0.63612-0.13407-1.2407-0.38668-1.8613-0.58008-0.36374-0.20545-0.69335-0.49167-1.0918-0.61719-0.08289-0.02608 0.01381 0.21256-0.0625 0.25391-0.20548 0.11134-2.4177 0.24912-2.7793 0.22266-0.68091-0.04997-1.3502-0.20313-2.0254-0.30469-0.41335-0.16533-0.81398-0.36766-1.2402-0.49609-0.14404-0.04343-0.29776 0.10134-0.44531 0.07227-3.002-0.59584-0.2687-0.04274-2.377-0.76562-0.09271-0.03179 0.15363 0.12076 0.23047 0.18164 0.02476 0.01414 0.1018 0.03579 0.07422 0.04297-0.70796 0.18831-1.4367 0.36064-2.1699 0.50781 0.15584 0.49067 0.31213 0.98049 0.47461 1.4688 0.05325 0.156 0.10495 0.31277 0.1582 0.46875 0.65732 1.926-1.2882 2.5902-1.9453 0.66406-0.05492-0.16092-0.10915-0.32344-0.16406-0.48438-0.20205-0.60735-0.39408-1.2179-0.58789-1.8281-0.16848 0.01548-0.338 0.05678-0.50586 0.06641-2.5713 0.14739-1.5908-1.178-0.34375-2.5898-0.03722-0.10099-0.07303-0.20213-0.11133-0.30274-0.2169-0.67588-0.35239-0.97954-0.44336-1.6523-0.07829-0.57911-0.11898-1.1607-0.13672-1.7441-0.04537-0.26262-0.06126-0.51827-0.0098-0.78516 0.0015-0.277 0.0076-0.555 0.01758-0.83203zm71.553 3.3867c-0.0024-3.22e-4 -0.04331 0.03444-0.04687 0.03516 2e-3 2e-3 0.0039 0.0038 0.0059 0.0059 5.62e-4 -0.0059 0.04659-0.04026 0.04102-0.04102zm34.145 32.117c7.4539 0.02315 11.393 1.6861 24.752 5.9512 12.032 3.8414 14.562 3.7567 16.422 4.5312 0.88535-0.35942 1.3677-0.06066 1.6113 0.47266 0.0156 0.0054 0.0313 0.01032 0.0469 0.01563 0.0871-0.17519 0.1562-0.33703 0.23828-0.50977 0.20989-1.2505 0.52146-2.8974 1-5.1484 3.7723 1.0312 6.9138 3.3761 9.623 6.1289 6.897 7.0077 8.7459 9.3364 15.645 17.141 4.2258 5.1351 8.5939 10.154 12.676 15.404 7.4757 9.6154 14.345 20.558 19.549 31.459 2.695 5.645 5.0468 11.511 6.5781 17.576 2.131 8.4396 4.3402 17.042 4.3613 25.746 0.0129 5.3186-2.841 10.252-4.2617 15.377-3.6028 6.685-6.0768 14.115-10.809 20.055-3.0866 3.8745-7.8448 6.0839-12.072 8.666-5.388 3.291-10.789 6.7301-16.713 8.9141-2.4016 0.88541-5.1352 0.37314-7.6777 0.0781-11.028-1.2788-8.9629-0.85044-16.006-5.8965-3.354-2.2719-6.6752-4.5895-10.061-6.8145-7.7811-5.114-17.689-11.163-25.504-15.525-21.585-12.048-2.1054 0.2354-26.854-14.293-2.1606-1.2684-4.1344-2.832-6.2012-4.248-3.2481-3.3909-6.8611-6.4676-9.7441-10.174-4.2887-5.5134-17.679-30.304-18.941-32.795-7.2199-14.241-14.607-29.349-12.73-46.199 0.62248-5.59 5.7838-9.6466 8.6758-14.471 6.109-5.4336 11.156-12.375 18.328-16.301 5.3861-2.9482 11.95-3.0202 18.061-3.6191 9.7969-0.96029 15.535-1.5354 20.008-1.5215zm42.832 10.971c-3e-3 0.0065-5e-3 0.01299-8e-3 0.01953-9e-3 -0.0043-0.0138-0.0056-0.0273-0.01172 0.0575 0.13135 0.091 0.28137 0.12305 0.43359 0.0173-0.11558 0.0426-0.26423 0.0625-0.39062-0.0503-0.01661-0.10032-0.03374-0.15039-0.05078zm-0.0469-0.01563c-0.0408-0.01408-0.0824-0.0264-0.12305-0.04102-0.0465-0.01677 0.0669 0.03161 0.13477 0.0625-3e-3 -0.0077-8e-3 -0.01391-0.0117-0.02148zm-43.361-5.2734c-4.1067 0.0012-9.5164 0.60809-19.223 1.6523-5.7906 0.62298-12.04 0.64695-17.115 3.5039-6.2501 3.5184-10.362 9.9209-15.543 14.881-2.535 4.3824-7.2102 8.0992-7.6055 13.146-1.028 13.128 7.2006 29.531 12.998 40.803 1.2379 2.4068 14.38 26.755 18.6 32.164 2.6383 3.3817 5.9936 6.1383 8.9902 9.207 1.7551 1.155 3.4439 2.4178 5.2656 3.4648 39.599 22.758-7.4737-4.8877 26.268 13.947 8.057 4.4975 17.98 10.544 25.965 15.789 3.432 2.2544 6.801 4.6041 10.201 6.9062 6.6617 4.7697 4.3356 4.3195 13.766 4.9863 2.181 0.15424 4.5311 0.65719 6.5566-0.16601 5.0025-2.0331 9.4484-5.2488 13.982-8.1816 3.9713-2.5689 8.5935-4.5764 11.504-8.3047 4.1369-5.2995 6.0341-12.017 9.0508-18.025 1.2694-4.7391 3.896-9.3114 3.8086-14.217-0.14018-7.8691-2.416-15.587-4.4746-23.184-1.5444-5.699-3.7255-11.24-6.2949-16.557-5.0741-10.499-11.617-20.874-18.832-30.121-4.0119-5.1418-8.296-10.066-12.443-15.1-6.8227-7.714-8.563-9.9163-15.367-16.828-0.80085-0.81352-1.605-1.6352-2.5195-2.3184-0.12501-0.09339-0.25599-0.17758-0.38476-0.26562-0.0195 0.0728-0.0458 0.14613-0.0625 0.21875-0.0931 0.4043-0.20218 0.8007-0.31836 1.1914 3.7438 3.6009 0.12686 7.6474-4.1445 4.0879-6.3732-5.311-1.2418-1.4121-19.098-6.8828-13.46-4.1238-16.685-5.8009-23.529-5.7988zm-4.8047 17.908c3.2582-0.01974 4.1878 3.8049 6e-3 5.8965-2.3033 1.1516-0.95072 0.32957-3.9863 3.3223-0.946 0.93263-1.8932 1.8651-2.8164 2.8203-0.0996 0.10299-0.19113 0.24729-0.2793 0.40233 0.26068 1.5411-0.77706 1.8919-1.5332 3.1465-0.1084 0.17975-0.0275 0.42331-0.0977 0.6211-0.3 0.84556-1.082 2.1816-1.4707 2.8926-0.26701 0.42837-0.98277 1.711-1.4785 1.9043-0.95531 0.37244-2.3383-0.1943-3.0215 0.57031-0.42194 0.47227 1.2943 0.86281 1.1836 1.4863-0.17556 0.9892-1.2895 1.5432-1.8672 2.3652-0.68516 0.97497-1.2776 2.0114-1.916 3.0176-0.34391 0.62776-0.78683 1.212-1.0312 1.8848-0.4345 1.1957-0.39183 2.0599-0.41602 3.2383-0.034 1.6656-0.09924 3.3484-0.05273 5.0176 0.01743 0.074 0.03026 0.1544 0.03125 0.24609 3.9e-4 0.0363-0.02366 0.0588-0.02539 0.0937-0.0031-0.11315-0.0027-0.22675-0.0059-0.33984-0.18154-0.77088-1.2271-0.61464-2.4473-0.26953 0.8845 0.29807 1.7748 0.60315 2.4395 0.66406-0.09752 1.1406-1.2975 1.6463-2.6328 2.125 1.0749 0.43873 2.143 0.91274 2.6914 1.7402 0.81488 1.2296 0.0025 2.9507 2e-3 4.4258-3.78e-4 1.6456-0.0013 3.2899-0.0039 4.9355-0.0011 0.90932-0.05344 1.8203-0.0078 2.7285 0.04327 0.86334 0.18258 1.7204 0.27344 2.5801 0.07301 0.36243 0.14176 0.72434 0.21875 1.0859 0.0072-6.2e-4 0.01629-6.8e-4 0.02344-2e-3 0.05594-5e-3 0.02162 0.22281 0.0098 0.16797-0.01232-0.0551-0.02144-0.11077-0.0332-0.16601-0.06736 6e-3 -0.14446 7e-3 -0.21875 0.01 0.14874 0.22359 0.29536 0.4438 0.45312 0.69336 0.11808 0.18678 0.15594 0.3539 0.13477 0.50781 0.21221 0.0327 0.41985 0.0765 0.61328 0.15235 0.80624 0.31618 0.72578 1.5747 1.1387 2.3359 0.4015 0.74026 0.86898 1.4422 1.3027 2.1641 0.21569 0.30852 0.89582 0.73931 0.85938 0.98242 6e-3 2e-3 0.0114 2e-3 0.0176 4e-3 0.45892 0.11913 0.69763 0.42815 0.8164 0.84766 0.7953-0.32546 1.6002-0.57007 2.4219-0.58398 1.8399-0.0311 3.4216 1.3566 5.125 2.0527 2.8116 1.149 5.6133 2.3214 8.4199 3.4824 5.3674 2.3942 10.892 4.4544 16.537 6.0938 0.50965 0.14796 5.0987 1.4268 6.4102 1.6602 1.7158 0.30533 3.4453 0.52732 5.168 0.79101 5.5762 0.73817 3.9927 0.62561 10.756 0.96875 1.5208 0.0772 3.0448 0.2479 4.5645 0.1504 0.49929-0.032 0.97324-0.43551 1.4473-0.56446 0.0692-0.32388 0.15995-0.66392 0.27344-1.0176-0.0395-0.0744-0.0841-0.14787-0.12109-0.22265-0.11285-0.22788 0.0197-0.26594 0.27148-0.21485 0.1045-0.28588 0.21986-0.57739 0.35742-0.88086 0.47461-1.047 2.0652-1.0304 3.0098-1.6855 0.38211-0.26502 0.72621-0.58015 1.0566-0.91016-0.29338-0.26114-0.56108-0.545-0.7832-0.86914-0.48519-0.7079 3e-3 -1.7184 0.0664-2.5742 0.0395-0.53445 0.11272-1.0675 0.22461-1.5918-0.23066-0.76373-0.11286-0.95524 0.22461-0.81445 0.68236-1.9143 1.8237-0.18806 5.7637 0.4668 0.0113 0.40892 0.0219 0.8196 0.0332 1.2285 0.0235 0.83566-0.12636 1.307-0.39258 1.5234 0.0735 0.42175 0.16559 0.8517-0.16211 0.94727-0.0126 4e-3 -0.14094-2e-3 -0.20313-2e-3 0.41404 1.2236 0.99989 2.4253 0.97852 3.7031-0.0118 0.70237-0.77434 1.1853-1.2715 1.6816-0.83672 0.83529-1.7394 1.6117-2.707 2.291-0.80997 0.56859-1.6658 1.7621-2.5976 1.4434 0.0879 0.32293 0.13131 0.65338 0.10351 0.99414-0.085 1.0419-1.3402 1.691-2.2754 2.1582-2.2136 1.1058-6.0673 0.67581-8.2344 0.5625-7.0677-0.36959-5.5002-0.25924-11.273-1.0254-1.8725-0.29298-3.7521-0.54189-5.6172-0.87891-1.4022-0.25336-6.189-1.5886-6.8027-1.7676-5.8103-1.6943-11.501-3.8118-17.029-6.2715-2.7869-1.153-5.568-2.3168-8.3594-3.459-1.6307-0.66731-3.8026-0.5953-4.9062-1.9688-0.93242-1.1602-0.10369-3.5795-0.47657-4.8965-1.5837 0.64814-3.1311 1.6165-4.7012 1.7773 0.31395 1.6544 1.0788 2.9966-1.0098 0.79102-0.39656-0.41877-0.65426-0.95017-0.98047-1.4258-0.51089-0.86465-1.0517-1.7133-1.5312-2.5957-0.37909-0.69755-1.4507-1.4606-1.041-2.1406 0.83993-1.3941 4.3597-1.759 4.5156-2.8926-1.8707-0.2886-4.363 0.87713-5.6426-0.19922-0.04262 1.1303-0.05597 1.7239-0.4043 0.25-0.13814-0.58445-0.21882-1.181-0.32812-1.7715-0.10042-1.0568-0.24772-2.1097-0.30078-3.1699-0.04543-0.90569 0.0044-1.8139 0.0059-2.7207 0.0024-1.6426 0.0053-3.2852 0.0059-4.9277 5.29e-4 -1.469-0.83263-3.1949-2e-3 -4.4062 0.6177-0.90036 1.9125-1.3277 3.123-1.7617-1.276-0.52083-2.5571-0.99265-2.9824-1.9394-0.05991 7e-3 -0.12291 0.018-0.17969 0.0215-0.125-3.892-0.23721-7.9696 1.1797-11.666 0.30148-0.78653 0.81791-1.4744 1.2266-2.2109 0.54503-0.84498 3.1106-5.0674 4.1973-5.9512 1.5786-1.2839 3.7708-1.7906 5.1367-3.2988 0.6208-0.6855-1.7416 0.3306-2.6816 0.63672-0.05518 0.0881-0.10985 0.17639-0.17188 0.25976-0.05087 0.0684 0.02218-0.20882 0.10352-0.23437 0.01719-5e-3 0.05004-0.0194 0.06836-0.0254 0.08454-0.13496 0.16831-0.27201 0.25391-0.40625 0.98425-1.7602 0.5133-0.84166 1.3984-2.7578 0.22616-0.40657 0.47038-0.80176 0.71876-1.1953-0.0547-0.20255-0.0925-0.40474-0.0625-0.60937 0.28359-1.9378 1.0078-2.4623 2.3047-3.8008 0.98295-1.0145 1.9636-2.0322 2.998-2.9941 3.9604-3.6827 2.6257-2.891 5.3164-4.2363 0.96533-0.48267 1.8418-0.69271 2.5938-0.69727zm-24.4 39.166c0.88959-0.10157 2.0967-0.54439 3.1758-0.84961-1.6857-0.56807-3.3403-1.1038-3.3262 0.16211 0.0028 0.25527 0.05826 0.48239 0.15039 0.6875zm0.88281 20.447c0.01323-0.35087 0.02941-0.6927 0.06055-1.1191-0.48459 0.10299-0.68762 0.32888-0.36719 0.78516 0.09209 0.13113 0.1947 0.23982 0.30664 0.33398zm0.06055-1.1191c1.0866-0.23091 3.6047 0.17164 4.9941 0.11719-4.0381-6.0702-4.8002-2.774-4.9941-0.11719zm5.6289 9.582c-0.13733-0.72366-0.18455-1.5032 0.12695-2.0762-1.3861 0.84168-2.4963 1.7426-1.4688 1.998 0.45034 0.11194 0.89659 0.1239 1.3418 0.0781zm0.12695-2.0762c0.48554-0.29482 0.98753-0.57259 1.4629-0.82226-0.77921 0.0726-1.2258 0.38618-1.4629 0.82226zm1.4629-0.82226c0.46836-0.0437 1.0621 3e-3 1.7969 0.16015-0.21697-0.32747-0.40833-0.85666-0.68945-0.72265-0.29482 0.14054-0.68884 0.34265-1.1074 0.5625zm1.7969 0.16015c0.11501 0.17359 0.23634 0.2949 0.38476 0.22266 0.0617-0.03 0.0891-0.069 0.0957-0.11328-0.16969-0.0438-0.32427-0.0761-0.48047-0.10938zm66.744 4.2305c-0.0685 0.19203-0.13575 0.40738-0.19727 0.67774-0.0103 0.0453-0.0176 0.0912-0.0273 0.13671 0.0538 0.17815 0.11912 0.37696 0.21289 0.6211 0.0266 0.0693 0.0536 0.13771 0.0801 0.20703 0.74177 0.0402 1.4832 0.10066 2.2246 0.15625-0.94119-0.78538-1.8243-1.6033-2.293-1.7988zm-64.717-58.406c-6e-3 -0.024-0.36816 0.4513-0.44336 0.71094 0.14001-0.22 0.28069-0.44053 0.41797-0.66211 0.0184-0.0296 0.0262-0.0452 0.0254-0.0488zm70.273 59.967c-3e-3 -2e-3 -7e-3 5e-3 -0.01 0.0195-0.0231 0.11911-0.0454 0.2382-0.0684 0.35742 7e-3 -7e-5 0.0143 9e-5 0.0215 0 0.10526-1e-3 0.08-0.36523 0.0566-0.37695zm-3.9414 5.293c0.0578 0.55045 0.11126 1.1022 0.18946 1.6484 0.74454 0.15129 2.6523 1.0876 2.2344 0.45313-0.58843-0.89333-1.5141-1.4895-2.4238-2.1016zm-6.2422 4.1562c-0.40695 0.0915-0.86591 0.22669-0.93164 0.48047-0.29415 1.1356 0.2642 2.3325 0.39648 3.498 2.0716 1.5746-0.21362-0.013 0.53516-3.9785z" fill="#f00"/>
  </clipPath>
 </defs>
 <g>
  <path transform="scale(.26458)" d="m17.443 39.539v280.26h447.72v-280.26z" clip-path="url(#clipPath14770)" fill-opacity="0" stroke="#fff" stroke-linecap="round" stroke-width="3" style="paint-order:markers fill stroke"/>
  <g stroke-width="0">
   <ellipse cx="15.397" cy="10.502" rx=".39687" ry=".39687" fill="#f00" style="paint-order:markers fill stroke"/>
   <ellipse cx="18.058" cy="10.498" rx=".39687" ry=".39687" fill="#0f0" style="paint-order:markers fill stroke"/>
   <ellipse cx="20.451" cy="10.498" rx=".39687" ry=".39687" fill="#00f" style="paint-order:markers fill stroke"/>
  </g>
 </g>
</svg>
